<svg width="201" height="201" viewBox="0 0 201 201" fill="none" xmlns="http://www.w3.org/2000/svg">
<path d="M185.048 127.112H119.164V88.9861H185.048V127.112ZM119.566 126.71H184.646V89.3881H119.566V126.71Z" fill="#E2E8F0"/>
<path d="M171.457 109.316H127.989V110.59H171.457V109.316Z" fill="#F3F4F6"/>
<path d="M174.452 114.067H127.989V115.458H174.452V114.067Z" fill="#F3F4F6"/>
<path d="M174.452 118.875H127.989V120.265H174.452V118.875Z" fill="#F3F4F6"/>
<path d="M143.18 102.414H127.989V105.722H143.18V102.414Z" fill="#F3F4F6"/>
<path d="M184.848 89.187H119.378V95.2572H184.848V89.187Z" fill="#E2E8F0"/>
<path d="M179.811 94.3495C179.726 94.2691 180.57 93.2521 181.692 92.0782C182.814 90.9044 183.799 90.016 183.879 90.0923C183.959 90.1687 183.119 91.1898 181.998 92.3677C180.876 93.5455 179.891 94.4299 179.811 94.3495Z" fill="white"/>
<path d="M183.887 94.35C183.806 94.4304 182.825 93.546 181.7 92.3682C180.574 91.1903 179.734 90.1732 179.818 90.0928C179.903 90.0124 180.88 90.8968 182.005 92.0787C183.131 93.2606 183.963 94.2696 183.887 94.35Z" fill="white"/>
<path opacity="0.1" d="M103.977 13.688H38.5076V51.4157H103.977V13.688Z" fill="black" fill-opacity="0.1"/>
<path d="M90.5909 33.8198H47.1226V35.0942H90.5909V33.8198Z" fill="#F3F4F6"/>
<path d="M93.5858 38.5718H47.1226V39.9627H93.5858V38.5718Z" fill="#F3F4F6"/>
<path d="M93.5858 43.3794H47.1226V44.7703H93.5858V43.3794Z" fill="#F3F4F6"/>
<path d="M62.3142 26.9177H47.1226V30.2262H62.3142V26.9177Z" fill="#F3F4F6"/>
<path d="M103.977 13.688H38.5076V19.7582H103.977V13.688Z" fill="#E2E8F0"/>
<path d="M98.719 18.8211C98.6345 18.7447 99.4788 17.7236 100.6 16.5498C101.722 15.3759 102.707 14.4875 102.787 14.5679C102.868 14.6483 102.027 15.6654 100.906 16.8392C99.7843 18.0131 98.7994 18.8934 98.719 18.8211Z" fill="white"/>
<path d="M102.787 18.8211C102.707 18.9015 101.726 18.0171 100.6 16.8392C99.4748 15.6614 98.6346 14.6483 98.719 14.5679C98.8034 14.4875 99.7803 15.3719 100.906 16.5498C102.031 17.7277 102.872 18.7447 102.787 18.8211Z" fill="white"/>
<path d="M79.182 83.7725H13.3103V45.6428H79.182V83.7725ZM13.7123 83.3705H78.78V46.0448H13.7123V83.3705Z" fill="#E2E8F0"/>
<path d="M65.5944 65.9762H22.1262V67.2505H65.5944V65.9762Z" fill="#F3F4F6"/>
<path d="M68.5893 70.7283H22.1262V72.1192H68.5893V70.7283Z" fill="#F3F4F6"/>
<path d="M68.5893 75.535H22.1262V76.926H68.5893V75.535Z" fill="#F3F4F6"/>
<path d="M37.3178 59.0741H22.1262V62.3826H37.3178V59.0741Z" fill="#F3F4F6"/>
<path d="M78.9808 45.8444H13.5111V51.9146H78.9808V45.8444Z" fill="#E2E8F0"/>
<path opacity="0.1" d="M155.204 92.5079H77.8993V161.716H155.204V92.5079Z" fill="black" fill-opacity="0.1"/>
<path d="M81.7868 70.7069H21.2296V133.624H81.7868V70.7069Z" fill="#F3F4F6"/>
<path d="M81.7868 70.7069H21.2296V77.561H81.7868V70.7069Z" fill="#E2E8F0"/>
<path d="M26.2306 74.0649C26.2195 74.3134 26.1358 74.5533 25.9897 74.7546C25.8435 74.956 25.6415 75.11 25.4086 75.1976C25.1758 75.2852 24.9223 75.3025 24.6797 75.2473C24.4371 75.1921 24.2161 75.0669 24.044 74.8872C23.8719 74.7075 23.7564 74.4812 23.7118 74.2365C23.6671 73.9917 23.6954 73.7392 23.793 73.5104C23.8905 73.2815 24.0532 73.0863 24.2607 72.9491C24.4682 72.8118 24.7114 72.7385 24.9602 72.7383C25.3043 72.7467 25.631 72.891 25.869 73.1395C26.1071 73.3881 26.237 73.7208 26.2306 74.0649Z" fill="white"/>
<path d="M31.3883 74.0649C31.3781 74.3146 31.2946 74.5558 31.1483 74.7585C31.002 74.9611 30.7994 75.1163 30.5656 75.2047C30.3318 75.293 30.0772 75.3107 29.8334 75.2554C29.5896 75.2002 29.3675 75.0745 29.1946 74.894C29.0218 74.7135 28.9058 74.4861 28.8612 74.2402C28.8166 73.9942 28.8452 73.7406 28.9436 73.5109C29.0421 73.2811 29.2059 73.0854 29.4147 72.948C29.6235 72.8106 29.8681 72.7377 30.118 72.7383C30.462 72.7467 30.7888 72.891 31.0268 73.1395C31.2648 73.3881 31.3948 73.7208 31.3883 74.0649Z" fill="white"/>
<path d="M36.5459 74.0649C36.5356 74.3146 36.4521 74.5558 36.3059 74.7585C36.1596 74.9611 35.9569 75.1163 35.7231 75.2047C35.4893 75.293 35.2347 75.3107 34.9909 75.2554C34.7472 75.2002 34.525 75.0745 34.3522 74.894C34.1793 74.7135 34.0634 74.4861 34.0187 74.2402C33.9741 73.9942 34.0028 73.7406 34.1012 73.5109C34.1996 73.2811 34.3634 73.0854 34.5722 72.948C34.781 72.8106 35.0256 72.7377 35.2755 72.7383C35.6196 72.7467 35.9463 72.891 36.1843 73.1395C36.4224 73.3881 36.5523 73.7208 36.5459 74.0649Z" fill="white"/>
<path d="M176.401 27.4495H99.0966V104.497H176.401V27.4495Z" fill="#F3F4F6"/>
<path d="M176.401 27.4495H99.0966V36.4744H176.401V27.4495Z" fill="#E2E8F0"/>
<path d="M105.682 31.8702C105.668 32.1983 105.558 32.515 105.365 32.7809C105.172 33.0469 104.906 33.2505 104.599 33.3664C104.291 33.4822 103.957 33.5053 103.636 33.4326C103.316 33.36 103.024 33.1949 102.797 32.9578C102.57 32.7208 102.417 32.4222 102.358 32.0991C102.299 31.7761 102.336 31.4428 102.465 31.1407C102.594 30.8386 102.808 30.5809 103.082 30.3997C103.356 30.2185 103.677 30.1218 104.006 30.1215C104.459 30.132 104.891 30.3219 105.205 30.6497C105.519 30.9774 105.691 31.4162 105.682 31.8702Z" fill="white"/>
<path d="M111.981 30.6881C112.204 30.9301 112.351 31.2324 112.403 31.5572C112.456 31.882 112.411 32.2151 112.276 32.5148C112.14 32.8145 111.919 33.0677 111.641 33.2428C111.362 33.4179 111.038 33.5072 110.709 33.4995C110.38 33.4919 110.061 33.3876 109.791 33.1997C109.521 33.0118 109.312 32.7485 109.19 32.4428C109.069 32.1371 109.04 31.8023 109.108 31.4803C109.175 31.1583 109.336 30.8632 109.569 30.6318C109.897 30.3201 110.335 30.1509 110.787 30.1615C111.239 30.172 111.669 30.3614 111.981 30.6881Z" fill="white"/>
<path d="M119.262 31.8702C119.247 32.1983 119.137 32.515 118.945 32.7809C118.752 33.0469 118.486 33.2505 118.178 33.3664C117.871 33.4822 117.536 33.5053 117.216 33.4326C116.896 33.36 116.604 33.1949 116.377 32.9578C116.149 32.7208 115.997 32.4222 115.938 32.0991C115.879 31.7761 115.916 31.4428 116.045 31.1407C116.173 30.8386 116.388 30.5809 116.662 30.3997C116.936 30.2185 117.257 30.1218 117.585 30.1215C118.039 30.132 118.47 30.3219 118.785 30.6497C119.099 30.9774 119.27 31.4162 119.262 31.8702Z" fill="white"/>
<path d="M163.344 182.158C163.344 182.214 135.43 182.263 101.006 182.263C66.5831 182.263 38.6561 182.214 38.6561 182.158C38.6561 182.102 66.567 182.053 101.006 182.053C135.446 182.053 163.344 182.106 163.344 182.158Z" fill="#0F172A"/>
<path d="M47.2527 132.945C41.0418 128.607 39.6348 120.555 39.88 113.315C39.9202 112.109 39.7876 110.831 40.3624 109.773C40.9373 108.716 42.28 107.989 43.3614 108.495C44.2578 108.917 44.6478 109.962 45.1503 110.827C45.8208 111.978 46.8033 112.916 47.9844 113.532C48.7522 113.934 49.7049 114.175 50.4647 113.757C51.5099 113.182 51.6305 111.747 51.6225 110.541C51.6225 108.298 51.6091 106.058 51.5823 103.82C51.51 102.618 51.6322 101.413 51.9441 100.25C52.3179 99.1084 53.1501 98.0511 54.2877 97.7295C55.4254 97.4079 56.8444 98.0712 57.1017 99.2451C57.146 99.7423 57.1581 100.242 57.1379 100.741C57.1701 101.243 57.4032 101.794 57.8736 101.947C58.3439 102.099 58.8343 101.75 59.1961 101.396C60.4343 100.19 61.2785 98.618 62.0624 97.0662C62.8463 95.5145 63.6141 93.9186 64.7397 92.596C65.8653 91.2734 67.4211 90.2242 69.1617 90.1237C70.9024 90.0232 72.7154 91.0925 73.1496 92.7809C73.5837 94.4693 72.5988 96.1939 71.5416 97.5647C69.9462 99.5995 68.0655 101.394 65.9578 102.891C65.5463 103.116 65.218 103.467 65.0211 103.892C64.7598 104.696 65.5196 105.5 66.3115 105.753C67.208 106.051 68.1808 105.958 69.1255 106.071C70.0702 106.184 71.0752 106.594 71.433 107.478C71.9235 108.708 70.8943 109.995 69.8853 110.839C67.8592 112.527 65.5586 113.856 63.0835 114.766C62.1991 115.088 61.2705 115.373 60.5549 115.992C59.8393 116.611 59.4132 117.693 59.8434 118.541C60.2735 119.389 61.379 119.659 62.3076 119.486C63.2362 119.313 64.0603 118.814 64.9447 118.481C66.597 117.858 68.7276 117.97 69.7687 119.397C70.0913 119.889 70.2955 120.449 70.3652 121.032C70.435 121.616 70.3684 122.208 70.1707 122.762C69.7684 123.864 69.1492 124.874 68.3497 125.733C65.7168 128.879 62.2958 131.269 58.4364 132.659C54.6053 133.986 51.0556 134.348 47.2487 132.953" fill="#F5A437"/>
<path d="M71.3806 91.1169C71.3806 91.1169 71.3444 91.1571 71.264 91.2295L70.9063 91.5471C70.5927 91.8285 70.1304 92.2385 69.5475 92.7812C67.8948 94.3157 66.3602 95.9726 64.9567 97.7379C64.0602 98.8514 63.1316 100.114 62.1427 101.485C61.1537 102.855 60.1327 104.335 59.1196 105.907C58.0396 107.564 57.0505 109.279 56.1569 111.044C55.6906 111.965 55.2805 112.925 54.8584 113.906L53.6122 116.901C51.9696 120.674 50.5389 124.535 49.3269 128.467C48.3507 131.684 47.6777 134.985 47.3169 138.328C47.0831 140.584 47.0454 142.855 47.2043 145.118C47.2687 145.922 47.329 146.537 47.3853 146.955C47.4094 147.156 47.4254 147.317 47.4415 147.433V147.598C47.4242 147.546 47.4121 147.492 47.4053 147.437C47.3852 147.321 47.3611 147.164 47.329 146.963C47.2566 146.561 47.1802 145.926 47.1079 145.122C46.9139 142.855 46.9274 140.576 47.1481 138.312C47.4865 134.955 48.1447 131.638 49.1138 128.406C50.3157 124.463 51.7424 120.593 53.3871 116.813L54.6655 113.83C55.0876 112.853 55.5016 111.884 55.972 110.96C56.8718 109.189 57.869 107.47 58.9588 105.81C59.9879 104.202 61.0251 102.747 62.002 101.388C62.9788 100.029 63.9235 98.759 64.816 97.6494C66.2338 95.8889 67.789 94.2435 69.4671 92.729C70.0621 92.1943 70.5364 91.7923 70.858 91.523L71.2319 91.2215C71.2777 91.1816 71.3276 91.1465 71.3806 91.1169Z" fill="#0F172A"/>
<path d="M56.0241 110.951C55.9674 110.785 55.9283 110.614 55.9076 110.44C55.8432 110.107 55.7709 109.636 55.6865 109.025C55.5136 107.819 55.3367 106.167 55.1478 104.338C54.9588 102.509 54.7458 100.853 54.5689 99.6587C54.4764 99.0638 54.396 98.5854 54.3398 98.2517C54.2958 98.0809 54.2729 97.9055 54.2714 97.7291C54.3406 97.8902 54.3906 98.0588 54.4202 98.2316C54.5086 98.5613 54.6091 99.0356 54.7217 99.6346C54.9508 100.841 55.1759 102.481 55.3649 104.314C55.5538 106.147 55.7146 107.755 55.8392 109.005C55.8995 109.568 55.9518 110.046 55.992 110.428C56.0232 110.601 56.034 110.776 56.0241 110.951Z" fill="#0F172A"/>
<path d="M71.4933 108.065C71.2977 108.107 71.0985 108.131 70.8983 108.137C70.4963 108.173 69.9255 108.221 69.218 108.302C67.8029 108.455 65.8573 108.736 63.7226 109.138C61.588 109.54 59.6705 109.994 58.2916 110.344C57.6042 110.521 57.0494 110.682 56.6836 110.79C56.4883 110.86 56.2862 110.908 56.0806 110.935C56.2664 110.841 56.4601 110.765 56.6595 110.706C57.0374 110.573 57.5841 110.388 58.2675 110.191C59.6383 109.789 61.5559 109.311 63.6985 108.901C65.5136 108.554 67.345 108.299 69.1858 108.137C69.8974 108.077 70.4722 108.053 70.8742 108.044C71.0807 108.03 71.2881 108.037 71.4933 108.065Z" fill="#0F172A"/>
<path d="M49.3107 128.124C49.2679 128.066 49.2327 128.002 49.2062 127.935L48.9409 127.376C48.7118 126.89 48.4022 126.17 48.0324 125.29C47.2846 123.521 46.3319 121.045 45.3189 118.295C44.3058 115.545 43.3732 113.069 42.6657 111.28C42.3199 110.412 42.0345 109.7 41.8215 109.17L41.5963 108.595C41.5651 108.528 41.5435 108.458 41.532 108.386C41.5749 108.444 41.61 108.507 41.6365 108.575L41.9019 109.133C42.127 109.62 42.4406 110.339 42.8104 111.22C43.5581 112.989 44.5109 115.465 45.5239 118.215C46.5369 120.964 47.4696 123.441 48.1771 125.23C48.5228 126.098 48.8082 126.809 49.0173 127.34C49.1097 127.569 49.1861 127.742 49.2464 127.915C49.2776 127.981 49.2993 128.052 49.3107 128.124Z" fill="#0F172A"/>
<path d="M69.8449 121.504C69.7806 121.541 69.7116 121.569 69.6399 121.588L69.045 121.789L66.846 122.501C64.9888 123.104 62.424 123.964 59.61 124.913C56.796 125.861 54.2192 126.706 52.3499 127.268C51.4172 127.554 50.6575 127.771 50.1309 127.916L49.5238 128.072C49.4532 128.095 49.3805 128.11 49.3068 128.117C49.3711 128.08 49.44 128.051 49.5118 128.032L50.1067 127.831L52.3057 127.12C54.1629 126.517 56.7277 125.656 59.5417 124.708C62.3557 123.759 64.9285 122.915 66.7978 122.352C67.7344 122.066 68.4902 121.849 69.0208 121.705L69.6279 121.548C69.6984 121.525 69.7712 121.511 69.8449 121.504Z" fill="#0F172A"/>
<path d="M65.2834 23.9916L63.2131 24.7312L62.3247 22.0258C60.6926 17.037 55.4907 14.3878 50.7109 16.0722C45.9311 17.7565 43.3865 23.2278 45.0186 28.2166L45.907 30.922L43.8287 31.6657C43.0361 31.9731 42.3926 32.5741 42.0317 33.3437C41.6709 34.1134 41.6205 34.9925 41.891 35.7983L47.6517 53.4019C47.7713 53.8008 47.9698 54.1716 48.2355 54.4923C48.5012 54.8129 48.8287 55.0769 49.1984 55.2686C49.5682 55.4602 49.9727 55.5755 50.3879 55.6077C50.8031 55.64 51.2205 55.5884 51.6154 55.4561L73.0701 47.7819C73.8731 47.4751 74.5258 46.8688 74.8909 46.0905C75.256 45.3123 75.3051 44.4228 75.0279 43.6092L69.2632 26.0056C69.1405 25.6078 68.9389 25.2388 68.6705 24.9206C68.4021 24.6024 68.0724 24.3415 67.7009 24.1535C67.3295 23.9656 66.924 23.8544 66.5086 23.8265C66.0933 23.7987 65.6766 23.8548 65.2834 23.9916ZM48.93 26.8056C48.49 25.5084 48.569 24.0913 49.1505 22.851C49.732 21.6108 50.7709 20.6438 52.0496 20.1525C52.6809 19.9364 53.3494 19.8498 54.015 19.8977C54.6805 19.9457 55.3297 20.1272 55.9236 20.4315C56.5175 20.7357 57.044 21.1565 57.4718 21.6687C57.8995 22.1809 58.2197 22.774 58.4132 23.4127L59.2976 26.1181L49.8144 29.511L48.93 26.8056ZM60.99 42.4273L62.4613 46.9216C62.4884 47.0118 62.4797 47.1088 62.437 47.1927C62.3943 47.2765 62.321 47.3407 62.2322 47.3719L60.17 48.1075C60.0879 48.1303 60.0002 48.1204 59.9252 48.0799C59.8503 48.0395 59.7939 47.9716 59.768 47.8905L58.2846 43.4162C57.4666 43.3716 56.6818 43.0783 56.0352 42.5754C55.3886 42.0724 54.9111 41.384 54.6666 40.6022C54.3169 39.5686 54.3807 38.4399 54.8445 37.4523C55.3084 36.4647 56.1363 35.6948 57.155 35.3038C57.6579 35.132 58.1903 35.0632 58.7204 35.1015C59.2506 35.1398 59.7675 35.2844 60.2406 35.5267C60.7136 35.769 61.133 36.1041 61.4738 36.512C61.8146 36.9199 62.0698 37.3922 62.2242 37.9008C62.4828 38.6949 62.5042 39.5473 62.2857 40.3534C62.0672 41.1596 61.6183 41.8845 60.9941 42.4393L60.99 42.4273Z" fill="#F5A437"/>
<path d="M63.121 24.6821C63.121 24.7384 59.2819 26.1816 54.5062 27.8981C49.7304 29.6146 45.835 30.9935 45.8149 30.9533C45.7948 30.9131 49.654 29.4579 54.4338 27.7373C59.2136 26.0167 63.1009 24.6298 63.121 24.6821Z" fill="#0F172A"/>
<path d="M67.6797 25.4218C67.6975 25.4566 67.7123 25.4929 67.724 25.5303C67.7561 25.6107 67.7923 25.7152 67.8405 25.8439C67.9451 26.1373 68.0898 26.5433 68.2707 27.0499L69.8144 31.5442C70.4576 33.4497 71.2254 35.7089 72.0776 38.2174C72.4796 39.4757 72.954 40.7862 73.3962 42.1651C73.6329 42.8756 73.7351 43.624 73.6977 44.372C73.6636 44.761 73.5529 45.1395 73.3721 45.4856C73.1789 45.8305 72.9209 46.1349 72.6123 46.382C71.9912 46.8354 71.3018 47.1869 70.5701 47.4232L68.4998 48.1669L64.5803 49.5699L57.9433 51.9337L53.461 53.5095L52.255 53.9115L51.9334 54.016C51.899 54.0313 51.8623 54.0408 51.8249 54.0442C51.8249 54.0442 51.857 54.0442 51.9254 53.9959L52.2389 53.8713L53.4449 53.417L57.9031 51.7769L64.5281 49.3649L68.4395 47.9498L70.5098 47.2021C71.2208 46.9754 71.8901 46.6346 72.4917 46.1931C72.7788 45.9638 73.0191 45.6812 73.1992 45.361C73.3694 45.0409 73.4721 44.6892 73.5007 44.3278C73.5377 43.6071 73.4395 42.8858 73.2113 42.2012C72.7771 40.8344 72.3188 39.5119 71.9048 38.2536C71.0686 35.7411 70.2968 33.4738 69.6857 31.5683C69.0747 29.6629 68.5601 28.1312 68.2064 27.0539C68.0375 26.5273 67.9089 26.1172 67.8044 25.8197L67.7079 25.4981C67.6958 25.4738 67.6863 25.4482 67.6797 25.4218Z" fill="#0F172A"/>
<path d="M56.3592 19.8789C56.3592 19.8789 56.1462 19.7744 55.7522 19.6136C55.1906 19.3978 54.5967 19.2782 53.9955 19.2598C53.1042 19.2293 52.2173 19.3968 51.3985 19.7503C50.4029 20.1905 49.5516 20.9024 48.9423 21.8045C48.3289 22.704 47.9998 23.767 47.9976 24.8557C48.006 25.748 48.1414 26.6346 48.3996 27.4888C48.6087 28.2204 48.8257 28.8033 48.9705 29.2093C49.0558 29.4156 49.1257 29.6279 49.1795 29.8445C49.0653 29.6517 48.9697 29.4484 48.8941 29.2375C48.7293 28.8355 48.4921 28.2646 48.2589 27.529C47.9727 26.6658 47.8169 25.7648 47.7966 24.8557C47.7859 23.7258 48.1227 22.62 48.7614 21.6879C49.392 20.7529 50.2781 20.0189 51.3141 19.5734C52.1584 19.218 53.073 19.0612 53.9874 19.1151C54.6018 19.1464 55.2052 19.2895 55.7683 19.5372C55.9188 19.6067 56.0639 19.6873 56.2024 19.7784C56.2596 19.8035 56.3125 19.8375 56.3592 19.8789Z" fill="#0F172A"/>
<path d="M56.5441 35.6089C56.6083 35.57 56.6755 35.5364 56.7451 35.5084C56.9464 35.4176 57.1548 35.3437 57.3682 35.2873C57.7071 35.1873 58.0566 35.1279 58.4094 35.1104C58.8894 35.0846 59.3695 35.1571 59.8204 35.3235C60.8496 35.6853 61.7942 36.7345 62.2606 38.1375C62.4842 38.8904 62.4842 39.6921 62.2606 40.445C62.0126 41.2621 61.5682 42.0061 60.9661 42.6118L60.9902 42.5032C61.5249 43.9705 62.1078 45.5624 62.7108 47.2227L62.747 47.3232L62.6465 47.3594L61.7259 47.6649L59.7159 48.3362L59.6154 48.3684L59.5832 48.2679C59.0325 46.6036 58.4295 45.0519 57.9752 43.5283L58.0637 43.5967C57.2778 43.5314 56.5285 43.2364 55.909 42.7484C55.3485 42.3167 54.8889 41.768 54.5623 41.1404C54.2676 40.5839 54.1208 39.961 54.1362 39.3314C54.1548 38.688 54.3154 38.0567 54.6066 37.4826C54.8978 36.9086 55.3123 36.406 55.8205 36.0109C56.0297 35.8411 56.2644 35.7054 56.516 35.6089C56.2889 35.7436 56.0689 35.8899 55.8567 36.0471C55.2985 36.5194 54.8708 37.127 54.6145 37.8119C54.3946 38.3283 54.2917 38.887 54.3133 39.4479C54.3348 40.0088 54.4803 40.558 54.7392 41.056C55.0603 41.6597 55.5088 42.1864 56.0537 42.5997C56.6447 43.0635 57.3591 43.3431 58.1079 43.4037H58.1762L58.1964 43.464C58.6386 44.9594 59.2456 46.5232 59.8044 48.1955L59.6717 48.1312L61.6817 47.4599L62.5982 47.1503L62.5339 47.287C61.935 45.6268 61.3561 44.0308 60.8254 42.5635V42.5032L60.8737 42.455C61.4581 41.8744 61.8939 41.1615 62.144 40.3766C62.3572 39.6564 62.3572 38.8899 62.144 38.1697C61.7058 36.8189 60.8013 35.7938 59.8204 35.432C59.3863 35.2646 58.9227 35.1867 58.4577 35.2029C58.1104 35.2108 57.7652 35.258 57.4285 35.3436C56.8296 35.4923 56.5481 35.629 56.5441 35.6089Z" fill="#0F172A"/>
<path d="M112.451 151.682L72.2953 151.497C69.9763 151.485 67.7572 150.552 66.1254 148.904C64.4935 147.257 63.5823 145.029 63.592 142.71L64.0181 42.0448C64.0228 40.8959 64.2539 39.7592 64.6982 38.6997C65.1425 37.6402 65.7913 36.6786 66.6074 35.87C67.4235 35.0613 68.391 34.4214 69.4546 33.9869C70.5181 33.5524 71.6569 33.3317 72.8058 33.3375L112.958 33.5224C115.277 33.5341 117.496 34.4658 119.129 36.1127C120.761 37.7596 121.673 39.9872 121.665 42.3061L121.239 142.967C121.234 144.116 121.003 145.253 120.559 146.313C120.115 147.373 119.466 148.335 118.65 149.145C117.834 149.954 116.866 150.595 115.803 151.03C114.739 151.465 113.6 151.687 112.451 151.682Z" fill="#475569"/>
<path d="M112.901 36.9846H105.119C104.865 36.9893 104.614 37.044 104.381 37.1455C104.149 37.2471 103.938 37.3935 103.762 37.5764C103.586 37.7593 103.447 37.9752 103.355 38.2116C103.262 38.448 103.216 38.7004 103.221 38.9544V40.3654C103.226 40.6191 103.181 40.8713 103.088 41.1075C102.995 41.3437 102.857 41.5593 102.68 41.7419C102.504 41.9245 102.294 42.0706 102.061 42.1717C101.828 42.2728 101.578 42.327 101.324 42.3312L86.1524 42.2628C85.6391 42.2491 85.1523 42.0323 84.7988 41.66C84.4453 41.2876 84.254 40.7902 84.267 40.2769V38.8659C84.28 38.3533 84.0892 37.8565 83.7366 37.4843C83.384 37.1121 82.8982 36.8948 82.3856 36.88H79.648L72.8341 36.8479C71.2134 36.8382 69.6549 37.4712 68.4999 38.6081C67.3448 39.7451 66.6874 41.2934 66.6714 42.9141L66.2694 141.171C66.2657 141.975 66.4204 142.772 66.7247 143.516C67.029 144.26 67.4768 144.937 68.0428 145.508C68.6087 146.08 69.2815 146.534 70.0229 146.845C70.7643 147.156 71.5597 147.318 72.3638 147.322L112.435 147.506C113.24 147.51 114.037 147.355 114.782 147.051C115.526 146.746 116.204 146.298 116.775 145.732C117.347 145.166 117.801 144.492 118.113 143.75C118.424 143.009 118.586 142.213 118.59 141.408L118.992 43.1512C119.001 41.526 118.365 39.9635 117.223 38.8071C116.081 37.6507 114.527 36.9952 112.901 36.9846Z" fill="white"/>
<path d="M107.501 134.396L77.7045 134.267C77.3949 134.267 77.1457 133.93 77.1497 133.52L77.1819 125.725C77.1819 125.323 77.4351 124.977 77.7447 124.977L107.541 125.114C107.712 125.143 107.866 125.238 107.969 125.378C108.073 125.518 108.118 125.693 108.096 125.865L108.068 133.652C108.068 134.066 107.81 134.4 107.501 134.396Z" fill="#5A6DF9"/>
<path d="M86.4866 130.313C86.3166 130.313 86.1532 130.285 85.9963 130.231C85.8416 130.174 85.7217 130.102 85.6367 130.015L85.7315 129.829C85.8122 129.907 85.92 129.974 86.0551 130.028C86.1924 130.08 86.3363 130.107 86.4866 130.107C86.6304 130.107 86.747 130.089 86.8364 130.054C86.9279 130.017 86.9944 129.968 87.0358 129.907C87.0794 129.846 87.1011 129.779 87.1011 129.705C87.1011 129.615 87.075 129.543 87.0227 129.489C86.9726 129.434 86.9061 129.392 86.8233 129.361C86.7405 129.329 86.649 129.3 86.5487 129.276C86.4485 129.252 86.3482 129.227 86.248 129.201C86.1478 129.173 86.0551 129.136 85.9702 129.09C85.8873 129.044 85.8198 128.984 85.7675 128.91C85.7174 128.834 85.6923 128.735 85.6923 128.613C85.6923 128.499 85.7217 128.396 85.7806 128.302C85.8416 128.206 85.9342 128.13 86.0584 128.073C86.1826 128.015 86.3417 127.985 86.5357 127.985C86.6642 127.985 86.7917 128.004 86.9181 128.041C87.0445 128.076 87.1534 128.125 87.245 128.188L87.1633 128.381C87.0652 128.315 86.9606 128.267 86.8495 128.237C86.7405 128.206 86.6348 128.191 86.5324 128.191C86.3951 128.191 86.2818 128.21 86.1924 128.247C86.1031 128.284 86.0366 128.334 85.993 128.397C85.9516 128.458 85.9309 128.528 85.9309 128.606C85.9309 128.696 85.956 128.768 86.0061 128.822C86.0584 128.876 86.126 128.919 86.2088 128.95C86.2938 128.98 86.3864 129.007 86.4866 129.031C86.5869 129.055 86.686 129.081 86.7841 129.11C86.8843 129.138 86.9758 129.175 87.0587 129.221C87.1436 129.264 87.2112 129.323 87.2613 129.397C87.3136 129.471 87.3398 129.568 87.3398 129.688C87.3398 129.799 87.3093 129.903 87.2482 129.999C87.1872 130.092 87.0935 130.169 86.9671 130.228C86.8429 130.284 86.6827 130.313 86.4866 130.313ZM87.8668 130.293V128.005H88.1087V130.293H87.8668ZM88.8532 130.293V128.005H89.0526L90.6314 129.992H90.5268V128.005H90.7654V130.293H90.566L88.9905 128.306H89.0951V130.293H88.8532ZM92.5158 130.313C92.3414 130.313 92.1802 130.284 92.032 130.228C91.886 130.169 91.7585 130.087 91.6496 129.982C91.5428 129.878 91.4589 129.755 91.3979 129.613C91.339 129.471 91.3096 129.317 91.3096 129.149C91.3096 128.981 91.339 128.826 91.3979 128.685C91.4589 128.543 91.5439 128.42 91.6528 128.315C91.7618 128.211 91.8893 128.13 92.0353 128.073C92.1835 128.015 92.3447 127.985 92.519 127.985C92.6934 127.985 92.8525 128.012 92.9963 128.067C93.1423 128.121 93.2665 128.204 93.3689 128.315L93.2186 128.469C93.1227 128.373 93.017 128.304 92.9015 128.263C92.786 128.222 92.6618 128.201 92.5289 128.201C92.3872 128.201 92.2565 128.225 92.1366 128.273C92.0189 128.319 91.9154 128.385 91.8261 128.472C91.7389 128.557 91.6703 128.657 91.6201 128.773C91.5722 128.886 91.5482 129.012 91.5482 129.149C91.5482 129.284 91.5722 129.409 91.6201 129.525C91.6703 129.64 91.7389 129.742 91.8261 129.829C91.9154 129.914 92.0189 129.98 92.1366 130.028C92.2565 130.074 92.3861 130.097 92.5256 130.097C92.6563 130.097 92.7795 130.077 92.895 130.038C93.0126 129.999 93.1205 129.932 93.2186 129.839L93.3559 130.022C93.2469 130.118 93.1194 130.191 92.9734 130.241C92.8274 130.289 92.6749 130.313 92.5158 130.313ZM93.1238 129.992V129.149H93.3559V130.022L93.1238 129.992ZM95.8178 130.313C95.5257 130.313 95.2958 130.229 95.128 130.061C94.9602 129.893 94.8763 129.645 94.8763 129.316V128.005H95.1182V129.306C95.1182 129.576 95.1793 129.775 95.3013 129.904C95.4233 130.033 95.5955 130.097 95.8178 130.097C96.0422 130.097 96.2155 130.033 96.3375 129.904C96.4595 129.775 96.5205 129.576 96.5205 129.306V128.005H96.7559V129.316C96.7559 129.645 96.672 129.893 96.5042 130.061C96.3386 130.229 96.1098 130.313 95.8178 130.313ZM97.4848 130.293V128.005H98.3412C98.5352 128.005 98.7019 128.036 98.8413 128.1C98.9808 128.161 99.0876 128.25 99.1617 128.368C99.238 128.483 99.2761 128.624 99.2761 128.789C99.2761 128.951 99.238 129.09 99.1617 129.208C99.0876 129.323 98.9808 129.413 98.8413 129.476C98.7019 129.539 98.5352 129.571 98.3412 129.571H97.6188L97.7267 129.456V130.293H97.4848ZM97.7267 129.476L97.6188 129.358H98.3347C98.5635 129.358 98.7367 129.309 98.8544 129.211C98.9743 129.111 99.0342 128.97 99.0342 128.789C99.0342 128.606 98.9743 128.465 98.8544 128.364C98.7367 128.264 98.5635 128.214 98.3347 128.214H97.6188L97.7267 128.1V129.476Z" fill="black" fill-opacity="0.1"/>
<path d="M111.952 65.8671L101.612 65.8202L101.604 67.7176L111.943 67.7645L111.952 65.8671Z" fill="#5A6DF9"/>
<path opacity="0.1" d="M111.952 65.8671L101.612 65.8202L101.604 67.7176L111.943 67.7645L111.952 65.8671Z" fill="#0F172A"/>
<path d="M111.362 77.517C111.443 77.5088 111.523 77.4899 111.599 77.4607C111.711 77.4172 111.807 77.3432 111.878 77.2472C111.95 77.1512 111.992 77.0371 112.001 76.918C112.001 76.2788 112.001 75.3462 112.001 74.1482C112.001 73.5493 112.001 72.8779 112.001 72.1382C112.001 71.9573 112.001 71.7684 112.001 71.5795C112.028 71.3961 111.988 71.2095 111.889 71.0529C111.833 70.9778 111.761 70.9165 111.678 70.874C111.595 70.8314 111.504 70.8087 111.41 70.8076H110.783H104.974L71.3511 70.683C71.2651 70.6815 71.1799 70.7009 71.1029 70.7394C71.0259 70.7779 70.9594 70.8344 70.9089 70.9041C70.8118 71.0614 70.7747 71.2483 70.8044 71.4307C70.8044 71.8327 70.8044 72.2347 70.8044 72.6367C70.8044 73.4407 70.8044 74.2447 70.8044 75.0487C70.8044 75.4507 70.8044 75.8527 70.8044 76.2547C70.7877 76.442 70.7877 76.6303 70.8044 76.8175C70.8255 76.8978 70.8648 76.9722 70.9191 77.0349C70.9735 77.0976 71.0415 77.147 71.118 77.1793C71.1972 77.2109 71.282 77.2259 71.3672 77.2236H73.4134L82.3418 77.2718L97.457 77.3642L107.648 77.4446L110.417 77.4768H111.137C111.302 77.4768 111.382 77.4768 111.382 77.4768H111.137H110.417H107.648H97.457L82.3418 77.4286L73.4134 77.3924H71.3672C71.2546 77.3969 71.1423 77.3778 71.0376 77.3361C70.9317 77.2909 70.8376 77.2222 70.7623 77.1351C70.6871 77.048 70.6327 76.9449 70.6034 76.8336C70.5801 76.7281 70.572 76.6198 70.5793 76.512V76.2145C70.5793 75.8125 70.5793 75.4105 70.5793 75.0085C70.5793 74.2045 70.5793 73.4005 70.5793 72.5965C70.5793 72.1945 70.5793 71.7925 70.5793 71.3905C70.5716 71.2835 70.5716 71.176 70.5793 71.0689C70.5943 70.9507 70.6401 70.8384 70.7119 70.7433C70.7813 70.6463 70.8731 70.5674 70.9795 70.5135C71.0859 70.4596 71.2037 70.4323 71.323 70.4338L104.946 70.6187L110.755 70.6589H111.382C111.493 70.659 111.602 70.6857 111.7 70.7368C111.798 70.7879 111.882 70.8618 111.945 70.9524C112.058 71.1271 112.104 71.3372 112.074 71.5433C112.074 71.7322 112.074 71.9212 112.074 72.1021C112.074 72.8337 112.074 73.5051 112.074 74.1121C112.074 75.3181 112.046 76.2427 112.038 76.8859C112.028 77.0095 111.983 77.1278 111.908 77.2268C111.833 77.3258 111.732 77.4014 111.615 77.4446C111.539 77.4918 111.452 77.5169 111.362 77.517Z" fill="#E2E8F0"/>
<path d="M108.837 72.7009H89.9272V74.4737H108.837V72.7009Z" fill="#5A6DF9"/>
<path opacity="0.2" d="M108.837 72.7009H89.9272V74.4737H108.837V72.7009Z" fill="white"/>
<path d="M112.022 83.1763L101.683 83.1294L101.674 85.0268L112.013 85.0737L112.022 83.1763Z" fill="#5A6DF9"/>
<path opacity="0.1" d="M112.022 83.1763L101.683 83.1294L101.674 85.0268L112.013 85.0737L112.022 83.1763Z" fill="#0F172A"/>
<path d="M111.283 94.8276C111.364 94.8176 111.445 94.8028 111.524 94.7834C111.636 94.7476 111.74 94.6882 111.827 94.6092C111.914 94.5301 111.984 94.4333 112.031 94.3251C112.094 94.1628 112.119 93.988 112.103 93.8145C112.103 93.6216 112.103 93.4125 112.103 93.1794C112.103 92.7131 112.103 92.1824 112.103 91.5714V89.0187C112.122 88.8339 112.081 88.6478 111.986 88.4881C111.887 88.3242 111.731 88.2026 111.548 88.1464C111.348 88.1106 111.144 88.0998 110.941 88.1142H105.156L71.6497 87.9896C71.4695 87.99 71.2956 88.0559 71.1602 88.1749C71.0249 88.2939 70.9375 88.4581 70.9141 88.6368C70.9141 89.0187 70.9141 89.4408 70.9141 89.8428C70.9141 90.6468 70.9141 91.4508 70.9141 92.2548C70.9141 92.6568 70.9141 93.0588 70.9141 93.4608C70.8991 93.6487 70.9072 93.8377 70.9382 94.0236C70.9884 94.1866 71.0917 94.3281 71.2316 94.4256C71.3801 94.5198 71.5546 94.5648 71.7301 94.5542H72.2889H73.4507L82.347 94.5985L97.4099 94.6909L107.564 94.7713L110.326 94.8035H111.046H111.287H111.046H110.326H107.564H97.4099L82.3389 94.7874L73.4426 94.7552H71.694C71.4765 94.7681 71.2607 94.7103 71.0789 94.5904C70.896 94.4637 70.7625 94.2777 70.701 94.0638C70.665 93.8595 70.6542 93.6516 70.6688 93.4447C70.6688 93.0427 70.6688 92.6407 70.6688 92.2387C70.6688 91.4347 70.6688 90.6307 70.6688 89.8267C70.6688 89.4247 70.6688 89.0227 70.6688 88.6207C70.6982 88.3908 70.8103 88.1795 70.9842 88.0264C71.1581 87.8732 71.3818 87.7887 71.6136 87.7886L105.12 87.9735L110.905 88.0177C111.12 88.0045 111.337 88.0194 111.548 88.0619C111.757 88.1302 111.933 88.2734 112.043 88.4639C112.147 88.641 112.192 88.8465 112.171 89.0509C112.171 89.2398 112.171 89.4247 112.171 89.6096C112.171 90.3373 112.171 91.0046 112.171 91.6196C112.171 92.2347 112.171 92.7533 112.171 93.2276C112.171 93.4568 112.171 93.6698 112.171 93.8668C112.186 94.0466 112.157 94.2272 112.087 94.3934C112.035 94.5044 111.959 94.6027 111.866 94.6818C111.772 94.7609 111.662 94.8188 111.544 94.8517C111.456 94.859 111.368 94.8508 111.283 94.8276Z" fill="#E2E8F0"/>
<path d="M112.1 101.238L101.761 101.191L101.752 103.088L112.092 103.135L112.1 101.238Z" fill="#5A6DF9"/>
<path opacity="0.1" d="M112.1 101.238L101.761 101.191L101.752 103.088L112.092 103.135L112.1 101.238Z" fill="#0F172A"/>
<path d="M111.295 112.881C111.376 112.872 111.457 112.857 111.536 112.837C111.648 112.802 111.751 112.743 111.838 112.665C111.925 112.586 111.995 112.49 112.043 112.383C112.106 112.221 112.13 112.046 112.115 111.872C112.115 111.675 112.115 111.47 112.115 111.233C112.115 110.771 112.115 110.236 112.115 109.625V107.073C112.134 106.888 112.093 106.702 111.998 106.542C111.897 106.381 111.742 106.261 111.56 106.204C111.36 106.167 111.156 106.155 110.953 106.168H105.168L71.6617 106.043C71.4815 106.044 71.3075 106.11 71.1722 106.229C71.0369 106.348 70.9494 106.512 70.926 106.691C70.926 107.093 70.926 107.495 70.926 107.897C70.926 108.701 70.926 109.505 70.926 110.309C70.926 110.711 70.926 111.113 70.926 111.515C70.911 111.701 70.9191 111.889 70.9501 112.073C70.9983 112.237 71.102 112.38 71.2436 112.475C71.3912 112.572 71.5663 112.617 71.7421 112.604H73.4908L82.387 112.652L97.45 112.745L107.604 112.825L110.366 112.857H111.086C111.247 112.857 111.327 112.857 111.327 112.857C111.327 112.857 111.247 112.857 111.086 112.857H110.366H107.604H97.45L82.387 112.813L73.4908 112.777H71.7421C71.5245 112.792 71.3081 112.734 71.127 112.612C70.9441 112.485 70.8106 112.299 70.7491 112.085C70.7131 111.881 70.7023 111.673 70.717 111.466C70.717 111.064 70.717 110.662 70.717 110.26C70.717 109.456 70.717 108.652 70.717 107.848C70.717 107.446 70.717 107.044 70.717 106.622C70.7454 106.393 70.8567 106.182 71.0299 106.028C71.2031 105.875 71.4264 105.79 71.6577 105.79L105.164 105.975L110.949 106.019C111.165 106.006 111.381 106.021 111.592 106.064C111.801 106.132 111.977 106.275 112.087 106.466C112.191 106.643 112.236 106.848 112.215 107.052C112.215 107.241 112.215 107.43 112.215 107.611C112.215 108.339 112.215 109.006 112.215 109.621C112.215 110.236 112.215 110.755 112.215 111.229C112.215 111.458 112.215 111.671 112.215 111.868C112.231 112.048 112.202 112.229 112.131 112.395C112.079 112.506 112.003 112.604 111.91 112.683C111.816 112.762 111.706 112.82 111.588 112.853C111.494 112.886 111.394 112.895 111.295 112.881Z" fill="#E2E8F0"/>
<path d="M109.249 90.5121L90.3391 90.4263L90.331 92.1991L109.241 92.2849L109.249 90.5121Z" fill="#5A6DF9"/>
<path opacity="0.2" d="M109.249 90.5121L90.3391 90.4263L90.331 92.1991L109.241 92.2849L109.249 90.5121Z" fill="white"/>
<path d="M109.184 109.601C109.172 109.763 109.113 109.917 109.014 110.046C108.915 110.174 108.78 110.271 108.627 110.324C108.474 110.376 108.308 110.383 108.151 110.342C107.994 110.302 107.853 110.216 107.744 110.096C107.635 109.976 107.564 109.826 107.539 109.666C107.515 109.506 107.538 109.342 107.605 109.195C107.673 109.047 107.783 108.923 107.92 108.837C108.058 108.752 108.218 108.708 108.38 108.713C108.604 108.725 108.814 108.825 108.964 108.992C109.115 109.158 109.194 109.377 109.184 109.601Z" fill="#5A6DF9"/>
<path d="M106.622 109.613C106.63 109.727 106.615 109.841 106.577 109.948C106.539 110.055 106.479 110.153 106.402 110.236C106.324 110.319 106.231 110.385 106.127 110.431C106.022 110.476 105.91 110.499 105.796 110.499C105.683 110.499 105.57 110.476 105.466 110.431C105.362 110.385 105.268 110.319 105.191 110.236C105.113 110.153 105.054 110.055 105.016 109.948C104.978 109.841 104.962 109.727 104.97 109.613C104.962 109.5 104.978 109.386 105.016 109.279C105.054 109.172 105.113 109.074 105.191 108.991C105.268 108.908 105.362 108.842 105.466 108.796C105.57 108.751 105.683 108.728 105.796 108.728C105.91 108.728 106.022 108.751 106.127 108.796C106.231 108.842 106.324 108.908 106.402 108.991C106.479 109.074 106.539 109.172 106.577 109.279C106.615 109.386 106.63 109.5 106.622 109.613Z" fill="#5A6DF9"/>
<path d="M104.058 109.625C104.046 109.786 103.987 109.941 103.888 110.069C103.79 110.198 103.655 110.294 103.502 110.347C103.348 110.4 103.183 110.406 103.026 110.366C102.869 110.326 102.727 110.24 102.618 110.12C102.51 110 102.439 109.85 102.414 109.69C102.389 109.53 102.412 109.366 102.48 109.218C102.548 109.071 102.657 108.947 102.795 108.861C102.933 108.775 103.092 108.732 103.254 108.736C103.478 108.75 103.687 108.85 103.838 109.016C103.988 109.182 104.067 109.401 104.058 109.625Z" fill="#5A6DF9"/>
<path d="M101.498 109.637C101.486 109.799 101.427 109.953 101.328 110.082C101.229 110.21 101.095 110.307 100.941 110.359C100.788 110.412 100.622 110.419 100.465 110.378C100.308 110.338 100.167 110.252 100.058 110.132C99.9492 110.012 99.878 109.862 99.8534 109.702C99.8288 109.542 99.8518 109.378 99.9195 109.23C99.9872 109.083 100.097 108.959 100.234 108.873C100.372 108.788 100.532 108.744 100.694 108.748C100.917 108.762 101.127 108.863 101.277 109.029C101.427 109.195 101.507 109.413 101.498 109.637Z" fill="#5A6DF9"/>
<path d="M98.9375 109.645C98.9264 109.807 98.868 109.962 98.7695 110.091C98.6709 110.22 98.5367 110.317 98.3834 110.371C98.23 110.424 98.0645 110.431 97.9071 110.391C97.7498 110.351 97.6078 110.266 97.4986 110.146C97.3894 110.025 97.3179 109.876 97.293 109.715C97.2681 109.555 97.2909 109.391 97.3586 109.243C97.4262 109.096 97.5357 108.971 97.6735 108.886C97.8113 108.8 97.9712 108.756 98.1335 108.761C98.3564 108.774 98.5652 108.874 98.7153 109.039C98.8655 109.205 98.9453 109.422 98.9375 109.645Z" fill="#5A6DF9"/>
<path d="M96.3725 109.657C96.3615 109.818 96.3036 109.972 96.2061 110.101C96.1085 110.23 95.9754 110.327 95.8232 110.381C95.6711 110.435 95.5064 110.443 95.3496 110.405C95.1927 110.367 95.0505 110.283 94.9404 110.165C94.8303 110.047 94.7572 109.899 94.73 109.74C94.7028 109.581 94.7227 109.417 94.7873 109.269C94.8519 109.121 94.9584 108.995 95.0936 108.907C95.2288 108.819 95.3869 108.772 95.5483 108.772C95.7748 108.781 95.9886 108.879 96.1431 109.044C96.2976 109.21 96.3801 109.43 96.3725 109.657Z" fill="#5A6DF9"/>
<path d="M93.81 109.669C93.818 109.782 93.8025 109.896 93.7645 110.003C93.7266 110.11 93.667 110.208 93.5896 110.291C93.5121 110.375 93.4183 110.441 93.3141 110.486C93.2099 110.531 93.0975 110.555 92.9839 110.555C92.8703 110.555 92.7579 110.531 92.6537 110.486C92.5496 110.441 92.4558 110.375 92.3783 110.291C92.3008 110.208 92.2413 110.11 92.2033 110.003C92.1654 109.896 92.1499 109.782 92.1578 109.669C92.1499 109.556 92.1654 109.442 92.2033 109.335C92.2413 109.228 92.3008 109.13 92.3783 109.047C92.4558 108.963 92.5496 108.897 92.6537 108.852C92.7579 108.807 92.8703 108.783 92.9839 108.783C93.0975 108.783 93.2099 108.807 93.3141 108.852C93.4183 108.897 93.5121 108.963 93.5896 109.047C93.667 109.13 93.7266 109.228 93.7645 109.335C93.8025 109.442 93.818 109.556 93.81 109.669Z" fill="#5A6DF9"/>
<path d="M91.2515 109.682C91.2405 109.843 91.1826 109.997 91.0851 110.126C90.9875 110.255 90.8544 110.352 90.7022 110.406C90.5501 110.46 90.3854 110.469 90.2286 110.43C90.0717 110.392 89.9295 110.308 89.8194 110.19C89.7093 110.072 89.6362 109.924 89.609 109.765C89.5818 109.606 89.6017 109.442 89.6663 109.294C89.7309 109.146 89.8374 109.021 89.9726 108.932C90.1078 108.844 90.2659 108.797 90.4274 108.798C90.6538 108.806 90.8677 108.904 91.0221 109.07C91.1766 109.235 91.2591 109.456 91.2515 109.682Z" fill="#5A6DF9"/>
<path d="M88.6905 109.693C88.6794 109.855 88.621 110.01 88.5225 110.139C88.424 110.268 88.2897 110.365 88.1364 110.419C87.9831 110.472 87.8175 110.479 87.6602 110.439C87.5029 110.399 87.3608 110.314 87.2516 110.193C87.1424 110.073 87.0709 109.924 87.046 109.763C87.0211 109.603 87.0439 109.439 87.1116 109.291C87.1792 109.144 87.2887 109.019 87.4265 108.933C87.5643 108.848 87.7243 108.804 87.8865 108.809C88.1094 108.822 88.3182 108.922 88.4684 109.087C88.6186 109.252 88.6983 109.47 88.6905 109.693Z" fill="#5A6DF9"/>
<g opacity="0.2">
<path d="M88.6903 109.601C88.6785 109.763 88.6194 109.918 88.5204 110.046C88.4215 110.175 88.287 110.271 88.1337 110.324C87.9804 110.377 87.8149 110.383 87.6579 110.343C87.5009 110.302 87.3592 110.217 87.2504 110.096C87.1416 109.976 87.0705 109.827 87.0459 109.666C87.0213 109.506 87.0443 109.342 87.112 109.195C87.1797 109.048 87.2892 108.923 87.4268 108.838C87.5645 108.752 87.7242 108.709 87.8863 108.713C88.1103 108.725 88.3203 108.826 88.4708 108.992C88.6213 109.158 88.7002 109.377 88.6903 109.601Z" fill="white"/>
<path d="M91.2507 109.614C91.2586 109.727 91.2431 109.841 91.2051 109.948C91.1672 110.055 91.1076 110.153 91.0302 110.236C90.9527 110.319 90.8589 110.386 90.7547 110.431C90.6505 110.476 90.5381 110.499 90.4245 110.499C90.3109 110.499 90.1985 110.476 90.0943 110.431C89.9902 110.386 89.8964 110.319 89.8189 110.236C89.7414 110.153 89.6819 110.055 89.6439 109.948C89.606 109.841 89.5905 109.727 89.5984 109.614C89.5905 109.5 89.606 109.387 89.6439 109.28C89.6819 109.172 89.7414 109.074 89.8189 108.991C89.8964 108.908 89.9902 108.842 90.0943 108.797C90.1985 108.751 90.3109 108.728 90.4245 108.728C90.5381 108.728 90.6505 108.751 90.7547 108.797C90.8589 108.842 90.9527 108.908 91.0302 108.991C91.1076 109.074 91.1672 109.172 91.2051 109.28C91.2431 109.387 91.2586 109.5 91.2507 109.614Z" fill="white"/>
<path d="M93.8159 109.625C93.804 109.787 93.745 109.941 93.646 110.07C93.5471 110.198 93.4126 110.295 93.2593 110.347C93.1059 110.4 92.9405 110.407 92.7835 110.366C92.6265 110.326 92.4848 110.24 92.376 110.12C92.2672 110 92.1961 109.85 92.1715 109.69C92.1469 109.53 92.1698 109.366 92.2376 109.218C92.3053 109.071 92.4147 108.947 92.5524 108.861C92.69 108.776 92.8498 108.732 93.0119 108.736C93.2355 108.75 93.4449 108.851 93.5952 109.017C93.7455 109.183 93.8247 109.401 93.8159 109.625Z" fill="white"/>
<path d="M96.3764 109.637C96.3645 109.799 96.3055 109.953 96.2065 110.082C96.1076 110.21 95.9731 110.307 95.8198 110.36C95.6664 110.412 95.501 110.419 95.344 110.378C95.187 110.338 95.0453 110.252 94.9365 110.132C94.8277 110.012 94.7566 109.862 94.732 109.702C94.7074 109.542 94.7303 109.378 94.7981 109.231C94.8658 109.083 94.9752 108.959 95.1129 108.873C95.2505 108.788 95.4103 108.744 95.5724 108.749C95.796 108.762 96.0054 108.863 96.1557 109.029C96.306 109.195 96.3852 109.413 96.3764 109.637Z" fill="white"/>
<path d="M98.9372 109.646C98.9261 109.808 98.8677 109.963 98.7692 110.092C98.6706 110.221 98.5364 110.318 98.3831 110.372C98.2297 110.425 98.0641 110.432 97.9068 110.392C97.7495 110.352 97.6074 110.267 97.4983 110.147C97.3891 110.026 97.3176 109.877 97.2927 109.716C97.2678 109.556 97.2906 109.392 97.3582 109.244C97.4259 109.097 97.5354 108.972 97.6732 108.887C97.811 108.801 97.9709 108.757 98.1332 108.762C98.3561 108.775 98.5649 108.875 98.715 109.04C98.8652 109.206 98.9449 109.423 98.9372 109.646Z" fill="white"/>
<path d="M101.502 109.657C101.491 109.818 101.433 109.973 101.336 110.101C101.238 110.23 101.105 110.327 100.953 110.381C100.801 110.435 100.636 110.444 100.479 110.405C100.322 110.367 100.18 110.284 100.07 110.165C99.9598 110.047 99.8866 109.899 99.8594 109.74C99.8322 109.581 99.8521 109.418 99.9168 109.27C99.9814 109.122 100.088 108.996 100.223 108.907C100.358 108.819 100.516 108.772 100.678 108.773C100.904 108.781 101.118 108.879 101.273 109.045C101.427 109.21 101.51 109.431 101.502 109.657Z" fill="white"/>
<path d="M104.063 109.669C104.071 109.783 104.055 109.896 104.017 110.003C103.979 110.11 103.92 110.209 103.842 110.292C103.765 110.375 103.671 110.441 103.567 110.486C103.463 110.532 103.35 110.555 103.237 110.555C103.123 110.555 103.011 110.532 102.906 110.486C102.802 110.441 102.708 110.375 102.631 110.292C102.553 110.209 102.494 110.11 102.456 110.003C102.418 109.896 102.403 109.783 102.41 109.669C102.403 109.556 102.418 109.442 102.456 109.335C102.494 109.228 102.553 109.13 102.631 109.047C102.708 108.964 102.802 108.897 102.906 108.852C103.011 108.807 103.123 108.783 103.237 108.783C103.35 108.783 103.463 108.807 103.567 108.852C103.671 108.897 103.765 108.964 103.842 109.047C103.92 109.13 103.979 109.228 104.017 109.335C104.055 109.442 104.071 109.556 104.063 109.669Z" fill="white"/>
<path d="M106.623 109.682C106.612 109.843 106.554 109.998 106.457 110.126C106.359 110.255 106.226 110.352 106.074 110.406C105.922 110.46 105.757 110.469 105.6 110.43C105.444 110.392 105.301 110.309 105.191 110.191C105.081 110.072 105.008 109.925 104.981 109.765C104.954 109.606 104.974 109.443 105.038 109.295C105.103 109.147 105.209 109.021 105.344 108.933C105.48 108.844 105.638 108.797 105.799 108.798C106.026 108.806 106.24 108.904 106.394 109.07C106.548 109.236 106.631 109.456 106.623 109.682Z" fill="white"/>
<path d="M109.184 109.693C109.173 109.855 109.115 110.01 109.016 110.139C108.918 110.268 108.783 110.365 108.63 110.419C108.477 110.472 108.311 110.479 108.154 110.439C107.997 110.399 107.854 110.314 107.745 110.194C107.636 110.074 107.565 109.924 107.54 109.764C107.515 109.603 107.538 109.439 107.605 109.291C107.673 109.144 107.782 109.019 107.92 108.934C108.058 108.848 108.218 108.804 108.38 108.809C108.603 108.822 108.812 108.922 108.962 109.087C109.112 109.253 109.192 109.47 109.184 109.693Z" fill="white"/>
</g>
<path d="M91.776 51.6607C92.0553 51.5378 92.2922 51.3354 92.4573 51.0788C92.6224 50.8222 92.7084 50.5227 92.7046 50.2176C92.715 50.0192 92.6849 49.8208 92.6162 49.6345C92.5475 49.4481 92.4415 49.2777 92.3048 49.1337C92.1681 48.9896 92.0035 48.8749 91.821 48.7965C91.6385 48.718 91.442 48.6776 91.2434 48.6776C91.0447 48.6776 90.8482 48.718 90.6657 48.7965C90.4832 48.8749 90.3186 48.9896 90.1819 49.1337C90.0452 49.2777 89.9392 49.4481 89.8705 49.6345C89.8018 49.8208 89.7717 50.0192 89.7821 50.2176C89.776 50.5257 89.8613 50.8288 90.0273 51.0885C90.1933 51.3482 90.4325 51.553 90.7147 51.6768C88.4635 52.0145 88.564 54.4587 88.564 54.4587L93.8865 54.4828C93.8865 54.4828 94.0111 51.9944 91.776 51.6607Z" fill="#5A6DF9"/>
<path opacity="0.1" d="M91.776 51.6607C92.0553 51.5378 92.2922 51.3354 92.4573 51.0788C92.6224 50.8222 92.7084 50.5227 92.7046 50.2176C92.715 50.0192 92.6849 49.8208 92.6162 49.6345C92.5475 49.4481 92.4415 49.2777 92.3048 49.1337C92.1681 48.9896 92.0035 48.8749 91.821 48.7965C91.6385 48.718 91.442 48.6776 91.2434 48.6776C91.0447 48.6776 90.8482 48.718 90.6657 48.7965C90.4832 48.8749 90.3186 48.9896 90.1819 49.1337C90.0452 49.2777 89.9392 49.4481 89.8705 49.6345C89.8018 49.8208 89.7717 50.0192 89.7821 50.2176C89.776 50.5257 89.8613 50.8288 90.0273 51.0885C90.1933 51.3482 90.4325 51.553 90.7147 51.6768C88.4635 52.0145 88.564 54.4587 88.564 54.4587L93.8865 54.4828C93.8865 54.4828 94.0111 51.9944 91.776 51.6607Z" fill="#0F172A"/>
<path d="M101.006 56.0584L82.0361 55.9723L82.0258 58.2395L100.996 58.3256L101.006 56.0584Z" fill="#5A6DF9"/>
<path opacity="0.2" d="M101.006 56.0584L82.0361 55.9723L82.0258 58.2395L100.996 58.3256L101.006 56.0584Z" fill="white"/>
<path d="M151.719 67.81H151.53L150.984 67.8502C150.688 67.8679 150.394 67.9069 150.103 67.9668C149.915 67.9932 149.729 68.0294 149.544 68.0753L148.921 68.2481C147.861 68.5735 146.86 69.0691 145.959 69.7154C144.767 70.5801 143.773 71.687 143.04 72.9636C142.609 73.6995 142.267 74.4834 142.019 75.2992C141.759 76.1859 141.609 77.1014 141.573 78.0248C141.549 78.5099 141.557 78.996 141.597 79.48C141.597 79.7253 141.665 79.9705 141.697 80.2197C141.724 80.471 141.772 80.7196 141.838 80.9634C142.2 82.5765 142.933 84.0829 143.98 85.3622C145.027 86.6416 146.358 87.6586 147.868 88.3321C148.961 88.8035 150.132 89.0667 151.321 89.1079C152.55 89.1755 153.779 88.9992 154.939 88.5893L155.293 88.4567H155.341L155.381 88.4808L160.451 91.0536L160.302 91.1823C159.759 89.5019 159.237 87.8738 158.73 86.31V86.2497L158.774 86.2055C160.004 84.9669 160.917 83.45 161.436 81.7835C161.905 80.2599 162.042 78.6532 161.838 77.072C161.655 75.6669 161.204 74.3101 160.507 73.0762C159.907 72.0162 159.132 71.0649 158.216 70.2622C157.46 69.6268 156.623 69.0942 155.727 68.6783C155.049 68.386 154.344 68.1637 153.621 68.015L152.817 67.8823L152.234 67.8381L151.88 67.814H151.759C151.8 67.8095 151.84 67.8095 151.88 67.814H152.238L152.821 67.8381L153.625 67.9547C154.357 68.0925 155.072 68.3068 155.759 68.5939C156.67 69.0048 157.522 69.5362 158.292 70.1737C159.225 70.9729 160.016 71.9244 160.632 72.9877C161.348 74.2349 161.814 75.61 162.002 77.0359C162.224 78.6414 162.097 80.276 161.629 81.8277C161.107 83.5289 160.18 85.078 158.927 86.3422L158.951 86.2376C159.458 87.8014 159.984 89.4295 160.531 91.1059L160.607 91.3511L160.378 91.2345L155.309 88.6657H155.398L155.036 88.7984C153.853 89.2144 152.601 89.3947 151.349 89.329C150.134 89.2828 148.939 89.0101 147.824 88.525C145.697 87.6142 143.928 86.0312 142.787 84.0186C142.262 83.0891 141.878 82.0865 141.649 81.0438C141.586 80.7937 141.539 80.54 141.508 80.284C141.476 80.0308 141.424 79.7815 141.412 79.5323C141.303 78.1019 141.454 76.6637 141.858 75.2872C142.112 74.4601 142.464 73.6665 142.907 72.9234C143.658 71.6352 144.673 70.5212 145.886 69.6551C146.803 69.0071 147.82 68.5154 148.897 68.1999L149.528 68.0391C149.714 67.996 149.902 67.9625 150.091 67.9386C150.384 67.8843 150.681 67.852 150.98 67.8421L151.53 67.822C151.593 67.8136 151.656 67.8096 151.719 67.81Z" fill="#464E73"/>
<path d="M154.01 77.1844H153.267L151.659 74.9251V73.4418C151.659 73.4418 150.509 73.3694 150.646 75.3111C150.782 77.2527 150.646 76.7583 150.646 76.7583C150.646 76.7583 148.206 76.7583 148.005 76.9794C147.804 77.2005 147.792 79.5562 147.763 80.8707C147.748 81.1876 147.839 81.5005 148.022 81.7598C148.205 82.0191 148.469 82.2099 148.772 82.3018C148.858 82.3254 148.945 82.3376 149.034 82.338C149.645 82.338 152.752 81.8436 152.752 81.8436H154.035L154.01 77.1844Z" fill="#F5A437"/>
<path d="M156.137 76.7875L155.679 81.8688H154.409V76.892L156.137 76.7875Z" fill="#F5A437"/>
<path d="M113.778 180.234V176.796L107.615 176.752L107.563 181.95L107.945 181.978C109.646 182.087 116.596 182.248 117.738 181.894C119.008 181.5 113.778 180.234 113.778 180.234Z" fill="#F4624D"/>
<path d="M117.882 181.571C117.882 181.627 115.575 181.675 112.733 181.675C109.89 181.675 107.583 181.627 107.583 181.571C107.583 181.515 109.89 181.466 112.733 181.466C115.575 181.466 117.882 181.515 117.882 181.571Z" fill="#0F172A"/>
<path d="M113.887 180.937C113.835 180.909 113.887 180.728 114.012 180.535C114.136 180.342 114.305 180.261 114.345 180.302C114.385 180.342 114.301 180.495 114.18 180.659C114.06 180.824 113.939 180.965 113.887 180.937Z" fill="#0F172A"/>
<path d="M114.281 181.161C114.225 181.161 114.253 180.936 114.373 180.723C114.494 180.51 114.655 180.381 114.699 180.414C114.743 180.446 114.671 180.627 114.558 180.816C114.446 181.005 114.333 181.181 114.281 181.161Z" fill="#0F172A"/>
<path d="M109.441 181.556C109.416 181.556 109.324 181.483 109.191 181.331C109.029 181.134 108.849 180.954 108.653 180.792C108.46 180.638 108.229 180.536 107.985 180.498C107.796 180.474 107.676 180.498 107.664 180.474C107.652 180.45 107.768 180.366 107.989 180.35C108.281 180.343 108.566 180.44 108.793 180.623C109.007 180.797 109.186 181.008 109.324 181.246C109.416 181.423 109.465 181.54 109.441 181.556Z" fill="#0F172A"/>
<path d="M113.907 180.289C113.935 180.337 113.83 180.458 113.654 180.522C113.477 180.587 113.32 180.563 113.312 180.522C113.304 180.482 113.428 180.398 113.581 180.341C113.734 180.285 113.875 180.241 113.907 180.289Z" fill="#0F172A"/>
<path d="M113.81 179.955C113.81 180.016 113.65 180.064 113.441 180.068C113.232 180.072 113.067 180.024 113.071 179.968C113.075 179.911 113.24 179.859 113.441 179.855C113.642 179.851 113.802 179.899 113.81 179.955Z" fill="#0F172A"/>
<path d="M128.954 180.234V176.796L122.791 176.752L122.739 181.898L123.121 181.926C124.821 182.034 131.776 182.248 132.914 181.894C134.184 181.5 128.954 180.234 128.954 180.234Z" fill="#F4624D"/>
<path d="M133.058 181.58C133.058 181.636 130.755 181.684 127.909 181.684C125.062 181.684 122.763 181.636 122.763 181.58C122.763 181.524 125.066 181.475 127.909 181.475C130.751 181.475 133.058 181.524 133.058 181.58Z" fill="#0F172A"/>
<path d="M129.062 180.937C129.014 180.909 129.062 180.728 129.187 180.535C129.311 180.342 129.48 180.261 129.52 180.302C129.56 180.342 129.476 180.495 129.355 180.659C129.235 180.824 129.114 180.965 129.062 180.937Z" fill="#0F172A"/>
<path d="M129.456 181.161C129.404 181.161 129.428 180.936 129.553 180.723C129.677 180.51 129.834 180.381 129.878 180.414C129.923 180.446 129.846 180.627 129.734 180.816C129.621 181.005 129.513 181.181 129.456 181.161Z" fill="#0F172A"/>
<path d="M124.616 181.556C124.592 181.556 124.503 181.483 124.366 181.331C124.204 181.134 124.024 180.954 123.828 180.792C123.635 180.638 123.405 180.536 123.16 180.498C122.975 180.474 122.851 180.498 122.839 180.474C122.827 180.45 122.943 180.366 123.164 180.35C123.456 180.343 123.741 180.44 123.968 180.623C124.183 180.796 124.363 181.007 124.499 181.246C124.592 181.423 124.64 181.54 124.616 181.556Z" fill="#0F172A"/>
<path d="M129.082 180.289C129.11 180.337 129.006 180.458 128.829 180.522C128.652 180.587 128.495 180.563 128.487 180.522C128.479 180.482 128.604 180.398 128.757 180.341C128.909 180.285 129.05 180.241 129.082 180.289Z" fill="#0F172A"/>
<path d="M128.994 179.955C128.994 180.016 128.833 180.064 128.624 180.068C128.415 180.072 128.254 180.024 128.258 179.968C128.262 179.911 128.423 179.859 128.624 179.855C128.825 179.851 128.994 179.899 128.994 179.955Z" fill="#0F172A"/>
<path d="M151.659 78.1654C151.498 78.0006 151.1 78.081 151.1 78.081C151.14 77.8495 151.14 77.613 151.1 77.3815C151.028 77.1564 150.521 77.2006 150.521 77.2006C150.498 77.0111 150.498 76.8193 150.521 76.6298C150.525 76.5878 150.516 76.5455 150.495 76.5088C150.474 76.4721 150.443 76.4428 150.404 76.4248C150.165 76.327 149.907 76.2805 149.649 76.2881C149.339 76.067 150.593 74.3102 151.06 73.7474C151.526 73.1846 151.442 72.7465 151.028 72.7465C150.742 72.7465 149.279 74.4349 148.829 75.0017C148.378 75.5685 147.184 77.1443 147.144 75.8861C147.104 74.6278 146.598 73.6791 146.28 73.5183C145.962 73.3575 145.625 73.7354 145.798 74.0851C145.949 74.4825 146.044 74.8993 146.079 75.3233C146.123 75.661 146.108 76.0037 146.035 76.3363C145.901 76.9552 145.72 77.5627 145.492 78.1534H145.46C145.46 78.1534 136.688 86.5672 136.053 87.1662C135.486 87.7049 124.086 86.527 121.798 86.2858C121.021 86.1721 120.236 86.1183 119.45 86.125C118.458 86.1692 118.281 86.3099 117.292 86.322C114.794 86.3497 112.303 86.5688 109.839 86.9773C108.723 87.1669 107.681 87.6594 106.826 88.4009C105.971 89.1424 105.336 90.1045 104.991 91.1822C102.687 98.378 97.4691 115.411 96.5485 124.978C95.8529 126.24 95.2249 127.537 94.6671 128.866C94.0199 130.626 94.1767 130.687 94.3938 130.727C94.9807 130.835 95.648 127.676 95.8973 128.44C96.1465 129.203 94.631 132.206 95.246 132.295C96.05 132.407 96.6892 129.079 96.7656 128.813C96.842 128.548 97.2399 128.632 97.1676 128.882C97.051 129.236 95.9214 132.986 96.7093 133.107C97.1435 133.171 97.1917 132.379 97.1917 132.379C97.1917 132.379 97.9957 128.789 98.3615 128.862C98.7273 128.934 98.3374 131.053 98.1525 131.76C97.9676 132.468 98.2248 132.825 98.6027 132.653C98.86 132.532 99.4751 130.381 99.6439 129.682C99.8127 128.982 100.235 127.045 100.802 128.166C101.368 129.288 102.229 129.939 102.583 129.955C102.662 129.946 102.737 129.913 102.798 129.861C102.859 129.809 102.903 129.739 102.924 129.662C102.945 129.584 102.943 129.503 102.917 129.427C102.891 129.351 102.843 129.284 102.78 129.236C102.475 128.938 102.214 128.6 102.004 128.231C101.816 127.943 101.68 127.624 101.602 127.29C101.44 126.623 101.345 125.941 101.32 125.256L101.256 124.854C102.156 120.396 104.749 107.31 108.492 98.9528L110.028 102.113L110.695 104.452L106.603 114.554L124.057 114.325L121.452 104.299L124.616 93.8474C128.037 93.9238 136.821 94.0525 138.284 93.3892C140.125 92.5852 149.649 80.5573 149.649 80.5573C150.269 80.0749 150.864 79.5597 151.43 79.0136C151.43 79.0136 152.008 78.5272 151.659 78.1654Z" fill="#FFBEB5"/>
<path d="M105.834 107.089C106.341 105.361 108.942 96.8141 108.942 96.8141C108.942 96.8141 110.22 103.781 109.883 104.621C109.572 105.34 109.205 106.034 108.785 106.695C105.834 111.186 106.22 113.433 106.22 113.433L124.049 112.89C124.089 110.398 122.614 104.601 122.308 103.676C122.003 102.752 123.02 99.7245 123.02 99.7245C123.02 99.7245 125.03 97.6784 124.958 96.6251C124.919 95.679 124.802 94.7378 124.608 93.8111L135.462 94.2131L135.12 86.8565L119.531 85.2968C118.988 86.8284 114.079 86.0766 114.079 86.0766C108.781 86.2535 108.451 87.2264 106.248 88.9389C104.046 90.6514 100.399 105.349 100.399 105.349L105.834 107.089Z" fill="#F4624D"/>
<path d="M116.375 105.349C116.066 105.404 115.752 105.42 115.439 105.397C114.856 105.397 114.056 105.357 113.176 105.268C112.295 105.18 111.499 105.055 110.932 104.943C110.62 104.902 110.313 104.824 110.02 104.71C110.334 104.71 110.648 104.739 110.956 104.798C111.527 104.87 112.319 104.971 113.196 105.059C114.072 105.148 114.868 105.208 115.443 105.248C115.756 105.252 116.068 105.286 116.375 105.349Z" fill="#0F172A"/>
<path d="M117.597 103.833C117.288 103.985 116.961 104.097 116.624 104.167C115.02 104.588 113.366 104.784 111.708 104.75C111.365 104.761 111.022 104.728 110.687 104.653C111.025 104.61 111.367 104.593 111.708 104.601C112.339 104.581 113.207 104.537 114.164 104.424C115.121 104.312 115.973 104.151 116.576 104.022C116.911 103.933 117.252 103.869 117.597 103.833Z" fill="#0F172A"/>
<path d="M123.595 97.071C123.587 97.3775 123.545 97.6822 123.47 97.9796C123.366 98.5383 123.205 99.3021 123 100.138C122.795 100.974 122.598 101.746 122.421 102.269C122.35 102.568 122.245 102.858 122.108 103.133C122.13 102.828 122.187 102.526 122.276 102.233C122.429 101.606 122.602 100.882 122.795 100.09C122.988 99.2981 123.173 98.5745 123.326 97.9474C123.38 97.6456 123.47 97.3513 123.595 97.071Z" fill="#0F172A"/>
<path d="M106.024 106.064C105.094 105.921 104.176 105.707 103.278 105.425C102.361 105.211 101.46 104.928 100.585 104.581C101.514 104.727 102.432 104.941 103.33 105.22C104.248 105.434 105.148 105.716 106.024 106.064Z" fill="#0F172A"/>
<path d="M124.801 93.7229C124.649 93.749 124.494 93.749 124.342 93.7229C123.923 93.6798 123.51 93.5812 123.116 93.4294C122.459 93.1823 121.86 92.8004 121.359 92.3081C120.858 91.8159 120.465 91.2243 120.206 90.5712C119.92 89.8528 119.797 89.0796 119.848 88.308C119.866 87.6715 120.056 87.0518 120.399 86.515C120.64 86.1534 121 85.8875 121.416 85.7633C121.527 85.7326 121.642 85.7177 121.758 85.7191C121.838 85.7191 121.878 85.7191 121.878 85.7191C121.878 85.7191 121.709 85.7191 121.44 85.8276C121.058 85.9687 120.734 86.2333 120.519 86.5794C119.973 87.4396 119.82 89.0115 120.403 90.4788C120.674 91.1706 121.099 91.7919 121.645 92.2958C122.093 92.7081 122.608 93.04 123.169 93.2767C123.695 93.4846 124.242 93.6342 124.801 93.7229Z" fill="#0F172A"/>
<path d="M134.172 94.0674C134.071 92.8347 134.039 91.5973 134.075 90.361C134.044 89.1257 134.081 87.8896 134.188 86.6586C134.288 87.89 134.321 89.126 134.284 90.361C134.318 91.5976 134.28 92.8351 134.172 94.0674Z" fill="#0F172A"/>
<path d="M119.427 85.7466C119.471 84.8502 119.563 83.8371 119.563 83.8371C119.563 83.8371 121.782 83.5919 121.915 81.3005C122.048 79.0091 121.915 73.7228 121.915 73.7228L117.895 71.6646L113.433 75.174L114.12 86.631L118.213 86.8923C118.525 86.901 118.829 86.7852 119.056 86.5704C119.284 86.3557 119.417 86.0594 119.427 85.7466Z" fill="#FFBEB5"/>
<path d="M119.824 79.4881C119.824 79.4881 119.824 79.5323 119.788 79.5846C119.758 79.6225 119.72 79.6525 119.675 79.6721C119.631 79.6917 119.583 79.7003 119.535 79.6971C119.278 79.6971 119.028 79.3996 118.94 79.0539C118.898 78.8863 118.898 78.711 118.94 78.5434C118.948 78.4702 118.975 78.4003 119.017 78.3399C119.059 78.2796 119.115 78.2307 119.181 78.1977C119.235 78.1753 119.296 78.1753 119.35 78.1977C119.39 78.2176 119.422 78.25 119.442 78.2901C119.471 78.3585 119.442 78.4027 119.442 78.3987C119.442 78.3946 119.442 78.3585 119.402 78.3183C119.381 78.2895 119.35 78.2694 119.315 78.262C119.281 78.2546 119.244 78.2603 119.213 78.2781C119.164 78.3079 119.123 78.3497 119.094 78.3996C119.065 78.4495 119.05 78.5059 119.048 78.5635C119.015 78.713 119.015 78.8682 119.048 79.0177C119.129 79.3313 119.346 79.5846 119.539 79.6087C119.577 79.6138 119.615 79.6111 119.652 79.6007C119.688 79.5903 119.722 79.5725 119.752 79.5484C119.8 79.5162 119.816 79.4841 119.824 79.4881Z" fill="#FFA193"/>
<path d="M123.293 72.4847C122.984 71.4315 121.862 70.9089 120.841 70.6194C119.285 70.1772 117.605 69.9843 116.085 70.543C114.566 71.1018 112.741 72.0827 112.741 73.759C111.844 73.6867 111.33 74.4706 110.976 75.4434C110.75 76.0361 110.614 76.6595 110.574 77.2926C110.461 79.4875 109.846 82.5186 108.423 84.1266C107.619 85.0231 106.506 85.6422 106.047 86.7597C105.645 87.7286 105.855 88.8783 105.481 89.8591C105.147 90.7234 104.411 91.3385 103.873 92.0903C103.324 92.943 103.001 93.9214 102.934 94.9333C102.867 95.9452 103.059 96.9575 103.491 97.875C103.926 98.769 104.538 99.5651 105.291 100.215C106.044 100.864 106.921 101.354 107.869 101.654C109.746 102.225 111.749 102.245 113.637 101.71C115.055 101.371 116.377 100.716 117.504 99.7926C118.658 98.8503 119.451 97.538 119.748 96.0781C120.033 94.4379 119.575 92.7696 119.233 91.1375C118.164 85.9799 118.469 85.7105 119.82 80.9227C119.852 80.8383 119.868 80.7498 119.892 80.6654C119.916 80.581 119.929 80.5408 119.945 80.4765C119.983 80.2872 120.003 80.0947 120.005 79.9016C119.808 79.975 119.593 79.9905 119.388 79.9463C119.182 79.9022 118.993 79.8002 118.843 79.6524C118.693 79.4947 118.588 79.2994 118.54 79.0871C118.492 78.8747 118.502 78.6533 118.57 78.4464C118.665 78.22 118.806 78.0161 118.985 77.8478C119.163 77.6795 119.375 77.5506 119.607 77.4695C120.053 77.2846 120.532 77.1881 120.97 76.9831C121.898 76.5409 122.542 75.6243 122.98 74.6635C123.34 73.9976 123.451 73.2252 123.293 72.4847Z" fill="#0F172A"/>
<path d="M119.985 79.5959C120.069 79.7214 120.14 79.8563 120.194 79.9979C120.314 80.2512 120.475 80.609 120.652 81.023L120.684 81.0994H120.6L120.198 81.1356C119.92 81.1356 119.687 81.1879 119.414 81.1838C119.39 81.1785 119.368 81.1672 119.35 81.151C119.331 81.1349 119.317 81.1144 119.309 81.0914C119.297 81.0548 119.297 81.0154 119.309 80.9788C119.318 80.9246 119.331 80.871 119.345 80.818L119.418 80.5326C119.454 80.3422 119.511 80.1562 119.587 79.9778C119.579 80.1719 119.551 80.3647 119.502 80.5527L119.446 80.8381C119.426 80.9346 119.39 81.0833 119.446 81.0713C119.647 81.0713 119.932 81.0271 120.198 81.011L120.6 80.9748L120.547 81.0632C120.374 80.6612 120.23 80.2834 120.145 80.0221C120.071 79.8886 120.017 79.7451 119.985 79.5959Z" fill="#F4624D"/>
<path d="M106.22 113.432L124.049 112.889L131.808 143.176L130.381 177.917H120.954L122.107 143.915L115.213 122.83L116.274 179.263L106.747 179.404L105.746 126.36C105.702 124.885 105.219 121.56 105.4 120.097L106.22 113.432Z" fill="#0F172A"/>
<path d="M117.585 123.261C117.293 123.279 117 123.262 116.713 123.209C116.174 123.144 115.439 123.032 114.631 122.871C113.823 122.71 113.099 122.525 112.576 122.377C112.297 122.315 112.027 122.218 111.772 122.087C111.772 122.027 113.083 122.34 114.691 122.666C116.299 122.992 117.593 123.201 117.585 123.261Z" fill="#475569"/>
<path d="M130.284 176.012C130.284 176.068 128.15 176.116 125.517 176.116C122.884 176.116 120.745 176.068 120.745 176.012C120.745 175.955 122.88 175.907 125.517 175.907C128.154 175.907 130.284 175.951 130.284 176.012Z" fill="#475569"/>
<path d="M116.19 177.796C116.19 177.857 114.116 177.901 111.559 177.901C109.002 177.901 106.932 177.857 106.932 177.796C106.932 177.736 109.006 177.692 111.559 177.692C114.112 177.692 116.19 177.74 116.19 177.796Z" fill="#475569"/>
<path d="M114.96 177.652C114.904 177.652 114.654 165.322 114.401 150.115C114.148 134.907 113.999 122.57 114.051 122.57C114.104 122.57 114.361 134.895 114.61 150.111C114.86 165.326 115.02 177.652 114.96 177.652Z" fill="#475569"/>
<path d="M129.018 176.012C129.013 175.957 129.013 175.902 129.018 175.847V175.365C129.018 174.931 129.05 174.308 129.074 173.516C129.13 171.908 129.21 169.572 129.311 166.71C129.528 160.953 129.834 153.018 130.167 144.258C130.167 144.174 130.167 144.094 130.167 144.021V144.049C128.057 135.607 126.147 127.945 124.76 122.402L123.152 115.845C122.967 115.077 122.827 114.478 122.726 114.06C122.678 113.863 122.646 113.71 122.618 113.594C122.602 113.541 122.593 113.488 122.59 113.433C122.61 113.484 122.627 113.536 122.638 113.59C122.67 113.702 122.71 113.855 122.766 114.048C122.875 114.45 123.032 115.061 123.233 115.825C123.635 117.377 124.202 119.612 124.909 122.365C126.308 127.905 128.238 135.547 130.376 144.001V144.029C130.376 144.102 130.376 144.186 130.376 144.266C130.018 153.026 129.693 160.957 129.456 166.714C129.331 169.58 129.227 171.9 129.154 173.516C129.114 174.32 129.082 174.931 129.062 175.365C129.062 175.57 129.038 175.731 129.034 175.847C129.034 175.903 129.029 175.958 129.018 176.012Z" fill="#475569"/>
<path d="M125.943 143.313C125.266 143.536 124.568 143.691 123.86 143.775C122.992 143.924 122.252 144.029 121.919 144.045V143.964C122.027 143.997 122.083 144.017 122.083 144.033C122.083 144.049 122.015 144.033 121.903 144.033H121.661L121.903 143.96C122.216 143.868 122.956 143.715 123.824 143.558C124.521 143.407 125.23 143.325 125.943 143.313Z" fill="#475569"/>
<path d="M125.778 144.466C125.151 144.495 124.523 144.466 123.901 144.382C123.273 144.369 122.647 144.3 122.031 144.177C123.288 144.074 124.552 144.172 125.778 144.466Z" fill="#475569"/>
<path opacity="0.2" d="M106.144 114.071C106.355 114.342 106.621 114.566 106.925 114.727C107.228 114.888 107.562 114.984 107.905 115.008C108.623 115.093 109.349 115.079 110.064 114.967C114.667 114.457 119.543 113.986 124.049 112.889C118.216 113.215 112.054 113.106 106.221 113.432L106.16 113.93" fill="#0F172A"/>
<g opacity="0.2">
<path d="M112.154 122.292L115.443 135.052L115.214 122.831L112.154 122.292Z" fill="#0F172A"/>
</g>
</svg>
